<?xml version="1.0" encoding="UTF-8"?>
<svg version="1.1" xmlns="http://www.w3.org/2000/svg" width="1000" height="1000">
<path d="M0 0 C204.6 0 409.2 0 620 0 C643.1047351 73.71510721 643.1047351 73.71510721 653.95388794 109.08282471 C658.20380548 122.93265665 662.48238268 136.77365489 666.75871277 150.61534882 C667.43664509 152.80973275 668.11451227 155.0041368 668.7923584 157.19854736 C671.86096015 167.13255408 674.9302913 177.0663353 678 187 C678.38947815 188.26038086 678.7789563 189.52076172 679.18023682 190.81933594 C684.452321 207.87991905 689.72594284 224.94002672 695 242 C697.75011808 250.89579683 700.50013169 259.79162595 703.25 268.6875 C703.59753326 269.81174377 703.94506653 270.93598755 704.3031311 272.09429932 C708.47917916 285.60380697 712.65320136 299.11393837 716.82421875 312.625 C718.31112999 317.44136135 719.79806799 322.25771443 721.28502274 327.07406235 C721.72058473 328.48489022 722.15613921 329.8957204 722.59168625 331.30655289 C728.14472536 349.29394711 733.70388685 367.27942969 739.2734375 385.26171875 C739.81268905 387.00285313 740.35193973 388.74398777 740.89118958 390.48512268 C741.70796458 393.12230382 742.52474158 395.75948434 743.34151936 398.39666462 C744.16518807 401.05610711 744.98884558 403.71555308 745.8125 406.375 C746.08483837 407.25431812 746.35717674 408.13363625 746.63776779 409.03960037 C755.20700772 436.70860476 763.74242954 464.38784484 772.25307465 492.07492447 C780.14337082 517.74338428 788.06637269 543.40135058 796.0395813 569.04418945 C796.69021937 571.13784214 797.34004061 573.23174888 797.98898315 575.32592773 C799.59607496 580.50795612 801.21456948 585.68595947 802.85836315 590.85645008 C803.70523725 593.52314564 804.54666031 596.19154654 805.38754463 598.86013603 C805.99010979 600.76498003 806.60018559 602.667443 807.21043396 604.56983948 C807.57484085 605.72813766 807.93924774 606.88643585 808.31469727 608.07983398 C808.64043228 609.10350571 808.9661673 610.12717743 809.30177307 611.18186951 C809.99445198 613.97760751 810.34247364 616.1405473 810 619 C807.87179463 621.106801 805.8860981 622.79543401 803.5 624.5625 C802.82727051 625.07989746 802.15454102 625.59729492 801.46142578 626.13037109 C799.31981361 627.77040689 797.16178527 629.38667666 795 631 C793.63239088 632.03199359 792.2651949 633.06453492 790.8984375 634.09765625 C788.21606981 636.11942388 785.52660672 638.13125534 782.83203125 640.13671875 C778.3147367 643.50305295 773.85409527 646.94049722 769.39453125 650.3828125 C765.52238958 653.37163262 761.63643723 656.34230565 757.75 659.3125 C757.03046143 659.86244629 756.31092285 660.41239258 755.56958008 660.97900391 C754.10370781 662.09932235 752.637806 663.21960215 751.171875 664.33984375 C749.0724096 665.94465094 746.97357536 667.55027916 744.875 669.15625 C736.19396061 675.79899784 727.50276296 682.42828006 718.80664062 689.05126953 C711.21720838 694.83230409 703.637062 700.62539178 696.06054688 706.42333984 C691.82958591 709.6607268 687.59727196 712.89634489 683.36523438 716.13232422 C679.87327365 718.80250592 676.38159641 721.47305623 672.890625 724.14453125 C664.20420453 730.79095904 655.50794198 737.4243357 646.80664062 744.05126953 C639.21720838 749.83230409 631.637062 755.62539178 624.06054688 761.42333984 C620.54099335 764.1163821 617.02043774 766.8081138 613.5 769.5 C612.08332872 770.58332729 610.66666204 771.66666062 609.25 772.75 C606.41666667 774.91666667 603.58333333 777.08333333 600.75 779.25 C600.04907227 779.7860083 599.34814453 780.3220166 598.62597656 780.87426758 C597.20607316 781.96006647 595.78615122 783.04584112 594.36621094 784.1315918 C590.87391567 786.80200585 587.38191954 789.47280895 583.890625 792.14453125 C575.20420453 798.79095904 566.50794198 805.4243357 557.80664062 812.05126953 C549.52921705 818.35636196 541.26316057 824.67623323 533 831 C522.94444528 838.6954795 512.88012797 846.37927527 502.80664062 854.05126953 C495.21720838 859.83230409 487.637062 865.62539178 480.06054688 871.42333984 C476.54099335 874.1163821 473.02043774 876.8081138 469.5 879.5 C468.08332872 880.58332729 466.66666204 881.66666062 465.25 882.75 C462.41666667 884.91666667 459.58333333 887.08333333 456.75 889.25 C456.04907227 889.7860083 455.34814453 890.3220166 454.62597656 890.87426758 C453.20607316 891.96006647 451.78615122 893.04584112 450.36621094 894.1315918 C446.87391567 896.80200585 443.38191954 899.47280895 439.890625 902.14453125 C431.20420453 908.79095904 422.50794198 915.4243357 413.80664062 922.05126953 C406.21720838 927.83230409 398.637062 933.62539178 391.06054688 939.42333984 C386.82958591 942.6607268 382.59727196 945.89634489 378.36523438 949.13232422 C374.87327365 951.80250592 371.38159641 954.47305623 367.890625 957.14453125 C360.10045993 963.10518785 352.30346427 969.05676265 344.5 975 C337.83081376 980.08003467 331.16240287 985.16107068 324.5 990.25 C323.81228516 990.77464844 323.12457031 991.29929687 322.41601562 991.83984375 C321.77341797 992.33097656 321.13082031 992.82210937 320.46875 993.328125 C319.86804688 993.78251953 319.26734375 994.23691406 318.6484375 994.70507812 C317.15764961 995.87615914 315.74462773 997.14460413 314.34375 998.421875 C312 1000 312 1000 309.69140625 1000.1328125 C305.56974086 998.39800414 302.38951487 995.68295978 298.9375 992.875 C297.32295204 991.58946428 295.70701631 990.30566997 294.08984375 989.0234375 C293.25308105 988.35795898 292.41631836 987.69248047 291.55419922 987.00683594 C287.4254089 983.76284278 283.21308566 980.63322841 279 977.5 C271.76694188 972.10508497 264.61497447 966.61802881 257.5078125 961.05859375 C252.07053534 956.81252219 246.5701135 952.65981453 241.03808594 948.53833008 C235.19892727 944.17627939 229.45342006 939.6990894 223.7109375 935.2109375 C218.20794909 930.91822832 212.6444942 926.71513906 207.04785156 922.5456543 C201.1124639 918.11176964 195.27077803 913.56200701 189.43188477 909.00219727 C184.36960565 905.05306079 179.26557553 901.17227096 174.1171875 897.3359375 C165.18233557 890.64039683 156.34765186 883.81014505 147.5 877 C137.06160519 868.96646576 126.61887318 860.9407041 116.0625 853.0625 C109.54484129 848.19664857 103.11962534 843.21967945 96.71118164 838.21118164 C91.84826806 834.41765999 86.94569625 830.68481139 82 827 C76.38524794 822.81517799 70.83138053 818.56045475 65.3125 814.25 C51.95674305 803.82153224 38.4646502 793.57349996 24.88623047 783.43701172 C19.10482051 779.10717318 13.41239975 774.66659993 7.72119141 770.21923828 C2.09580656 765.83126826 -3.5885724 761.52937719 -9.3059082 757.26220703 C-15.58709896 752.57193701 -21.7976479 747.79378782 -28 743 C-34.81068319 737.74578734 -41.63656714 732.51285551 -48.48364258 727.30615234 C-56.12566315 721.49476658 -63.7464317 715.66001149 -71.3125 709.75 C-77.40953259 704.98981404 -83.55432244 700.30283238 -89.75341797 695.67651367 C-105.29101801 684.07385948 -120.64356055 672.22163459 -136.04296875 660.43652344 C-138.11184517 658.85334039 -140.18086714 657.27034789 -142.25 655.6875 C-143.28253906 654.89762695 -143.28253906 654.89762695 -144.3359375 654.09179688 C-150.13478916 649.65769327 -155.94209434 645.23473427 -161.75 640.8125 C-178.19065506 628.29159938 -178.19065506 628.29159938 -185 623 C-186.43859375 622.12601563 -186.43859375 622.12601563 -187.90625 621.234375 C-188.5971875 620.49703125 -189.288125 619.7596875 -190 619 C-189.65560783 613.46451228 -188.40678401 608.41541391 -186.7253418 603.13696289 C-186.4935362 602.39021553 -186.26173059 601.64346817 -186.02290058 600.8740921 C-185.25470517 598.40491012 -184.47696644 595.93884443 -183.69921875 593.47265625 C-183.14968635 591.71251023 -182.60079143 589.95216507 -182.05249023 588.19163513 C-180.88220286 584.43823102 -179.70782016 580.68614362 -178.53012085 576.93505859 C-176.668635 571.0056975 -174.81640304 565.07347285 -172.96606445 559.140625 C-172.34179809 557.13930761 -171.71751524 555.13799535 -171.09321594 553.13668823 C-170.78415125 552.14591152 -170.47508656 551.15513481 -170.15665627 550.13433456 C-169.21684315 547.12279594 -168.27612379 544.11154183 -167.33512878 541.10037231 C-162.27057981 524.89138115 -157.26057383 508.66613719 -152.28006744 492.43115616 C-150.48819547 486.59150934 -148.69339275 480.7527622 -146.8984375 474.9140625 C-146.60277704 473.95222896 -146.60277704 473.95222896 -146.30114365 472.97096443 C-141.16478096 456.2641047 -135.98880817 439.56951732 -130.8125 422.875 C-130.34131541 421.35523582 -129.87013417 419.83547061 -129.3989563 418.31570435 C-127.55584714 412.37090612 -125.71264712 406.42613607 -123.86933899 400.48139954 C-119.78278046 387.30168073 -115.70086426 374.12053041 -111.625 360.9375 C-111.29490936 359.8699649 -110.96481873 358.80242981 -110.62472534 357.70254517 C-106.1168861 343.12083255 -101.62489125 328.53428744 -97.140625 313.9453125 C-96.62460586 312.26660077 -96.10858412 310.58788983 -95.59255981 308.90917969 C-95.33526533 308.07215263 -95.07797085 307.23512558 -94.81287956 306.37273407 C-93.5002863 302.10264582 -92.18765505 297.83256925 -90.875 293.5625 C-90.61452629 292.71513779 -90.35405258 291.86777557 -90.08568573 290.99473572 C-83.56511898 269.78323526 -77.01961387 248.58042755 -70.37765503 227.40655518 C-65.00321281 210.26891724 -59.71197488 193.10609998 -54.4375 175.9375 C-47.25961947 152.57384338 -40.05167414 129.21974076 -32.8125 105.875 C-32.46765564 104.76292301 -32.46765564 104.76292301 -32.11584473 103.62837982 C-31.42359242 101.39596805 -30.73132893 99.16355974 -30.0390625 96.93115234 C-29.35405262 94.72213636 -28.66904529 92.51311959 -27.98404694 90.30410004 C-27.53214897 88.84680585 -27.08023964 87.38951518 -26.62831879 85.93222809 C-23.41648858 75.57485024 -20.20949574 65.21598775 -17.0078125 54.85546875 C-16.81074644 54.21777809 -16.61368038 53.58008743 -16.41064262 52.92307281 C-14.39450004 46.39865761 -12.37924915 39.87396731 -10.36450195 33.34912109 C-10.03727142 32.28969803 -9.71004089 31.23027496 -9.37289429 30.13874817 C-8.78063732 28.22124912 -8.1885879 26.30368593 -7.59683228 24.3860321 C-5.08406595 16.25111873 -2.53961285 8.12676113 0 0 Z M112 161 C111.51687761 162.28188243 111.03436055 163.56399301 110.55210018 164.84619999 C110.28333378 165.56015086 110.01456737 166.27410174 109.73765653 167.00968748 C108.93474223 169.17607566 108.19990748 171.35403217 107.50805664 173.55834961 C107.25164902 174.37178833 106.99524139 175.18522705 106.73106384 176.02331543 C106.46016434 176.89089478 106.18926483 177.75847412 105.91015625 178.65234375 C105.61440201 179.59380249 105.31864777 180.53526123 105.01393127 181.50524902 C104.02756148 184.64853693 103.04485284 187.79295454 102.0625 190.9375 C101.71475525 192.04819855 101.3670105 193.15889709 101.00872803 194.30325317 C94.52570149 215.01106474 88.13645657 235.74757871 81.76596642 256.49021816 C74.48048153 280.21185036 67.15360719 303.92052528 59.8125 327.625 C59.24937481 329.44345966 58.68625428 331.26192075 58.12313843 333.0803833 C55.92660022 340.17357483 53.73000451 347.26674853 51.53321838 354.35986328 C46.99635003 369.00920958 42.46514796 383.66030108 37.9375 398.3125 C37.60122589 399.40070038 37.26495178 400.48890076 36.91848755 401.6100769 C35.59174174 405.90355093 34.26503697 410.19703764 32.93843079 414.49055481 C30.25567183 423.17314805 27.57197353 431.85545069 24.88757324 440.53753662 C23.15303118 446.14775635 21.41921274 451.7581976 19.68701172 457.36914062 C16.30809384 468.31196313 12.9236025 479.25297373 9.52121925 490.18852139 C7.58033783 496.42677955 5.64268372 502.66603458 3.70697594 508.9059 C2.52500876 512.71524584 1.34118706 516.52399391 0.1529541 520.33139038 C-0.9638898 523.91005129 -2.07598838 527.49015375 -3.18468666 531.07134628 C-3.59359981 532.38916352 -4.00423246 533.7064487 -4.41676903 535.02313614 C-6.69400847 542.29485174 -8.7157432 549.48336621 -10 557 C-4.78612333 561.72756838 0.6273856 566.04004148 6.28125 570.23046875 C10.94940803 573.69381479 15.56613759 577.22460465 20.1875 580.75 C21.54862915 581.78785645 21.54862915 581.78785645 22.93725586 582.84667969 C31.97931138 589.74336707 41.01208372 596.65217306 50.04296875 603.56347656 C58.52157406 610.05162834 67.00651283 616.531338 75.5 623 C83.9876614 629.46422508 92.46672292 635.93956084 100.93945312 642.42333984 C104.45900664 645.1163821 107.97955088 647.80812868 111.5 650.5 C115.70359447 653.71423063 119.90702586 656.92867255 124.109375 660.14453125 C131.89953992 666.10518774 139.69648829 672.05682511 147.5 678 C155.9876614 684.46422508 164.46672292 690.93956084 172.93945312 697.42333984 C176.45900664 700.1163821 179.97955088 702.80812868 183.5 705.5 C187.70359447 708.71423063 191.90702586 711.92867255 196.109375 715.14453125 C203.89953992 721.10518774 211.69648829 727.05682511 219.5 733 C229.35790051 740.50780276 239.20261957 748.03269308 249.04296875 755.56347656 C258.41034518 762.73174986 267.78613951 769.88882674 277.17138672 777.03369141 C281.40805829 780.25980942 285.64188995 783.48946367 289.8671875 786.73046875 C290.62966797 787.31505859 291.39214844 787.89964844 292.17773438 788.50195312 C293.58865729 789.58428777 294.99887526 790.66754235 296.40820312 791.75195312 C297.66264427 792.71407263 298.92187044 793.66999575 300.18652344 794.61865234 C301.42978568 795.56566066 302.65119173 796.5418588 303.85253906 797.54150391 C305.84050052 799.19391736 305.84050052 799.19391736 309 801 C313.95613917 800.38744347 318.24677372 795.8730651 322.0625 792.8125 C323.67713751 791.53618013 325.29306992 790.26149705 326.91015625 788.98828125 C327.74691895 788.32908691 328.58368164 787.66989258 329.44580078 786.99072266 C333.58431749 783.76519549 337.79159374 780.63344852 342 777.5 C348.38819965 772.73453224 354.72392219 767.91219517 361 763 C368.107977 757.43668938 375.30486191 752.00329534 382.5390625 746.60546875 C388.07594963 742.46565995 393.55593492 738.26099086 399 734 C405.27609715 729.08778969 411.61239426 724.26628309 418 719.5 C425.20392743 714.12327136 432.3360649 708.66520025 439.41967773 703.13110352 C446.54292647 697.5668758 453.72124298 692.07661122 460.90869141 686.59570312 C463.66443137 684.49302785 466.41703342 682.38626619 469.16967773 680.27954102 C477.16888967 674.15785799 485.17992691 668.05178156 493.19335938 661.94873047 C501.47078295 655.64363804 509.73683943 649.32376677 518 643 C528.05555472 635.3045205 538.11987203 627.62072473 548.19335938 619.94873047 C556.47078295 613.64363804 564.73683943 607.32376677 573 601 C582.15935891 593.9903759 591.32447593 586.98845625 600.5 580 C602.26694592 578.65367055 604.03387315 577.30731657 605.80078125 575.9609375 C608.38522095 573.99161085 610.97003771 572.0227908 613.55615234 570.05566406 C615.93426543 568.24674788 618.31101076 566.4360487 620.6875 564.625 C621.40035156 564.08359375 622.11320313 563.5421875 622.84765625 562.984375 C623.49992188 562.48679687 624.1521875 561.98921875 624.82421875 561.4765625 C625.67632935 560.8280835 625.67632935 560.8280835 626.5456543 560.16650391 C628.148014 558.92476681 628.148014 558.92476681 630 557 C629.5905927 549.15632563 626.31796271 541.16568067 623.95703125 533.74609375 C623.55273589 532.46202973 623.14895049 531.17780505 622.74563599 529.89343262 C621.88758727 527.16388892 621.02654891 524.43531509 620.16305542 521.70748901 C618.08740527 515.14923339 616.02840428 508.58574037 613.96763039 502.02279854 C613.27282748 499.81055769 612.57744197 497.59850056 611.88200378 495.38645935 C608.17452963 483.58806399 604.53785609 471.76902316 600.9375 459.9375 C594.27129598 438.05472236 587.48942356 416.20832028 580.70200729 394.36291122 C572.39500688 367.62653155 564.09796947 340.88735753 555.875 314.125 C555.58330114 313.17566967 555.58330114 313.17566967 555.28570938 312.20716095 C554.69542536 310.28606013 554.10515833 308.36495409 553.51489258 306.44384766 C552.71568557 303.84276483 551.91644472 301.2416924 551.1171875 298.640625 C550.91793104 297.9921246 550.71867458 297.34362419 550.51338005 296.67547226 C543.92420076 275.23212805 537.30023783 253.79949121 530.68093681 232.36543083 C529.92798916 229.92718802 529.17515557 227.48891002 528.42233276 225.05062866 C527.44003407 221.86917616 526.45716108 218.68790188 525.47390747 215.50674438 C523.12952898 207.91900847 520.79240833 200.3291615 518.47233582 192.73395348 C517.35640165 189.08087102 516.23838057 185.42842839 515.12039185 181.77597427 C514.58462034 180.02310257 514.05000083 178.26987832 513.51657104 176.51629257 C512.78074166 174.09740858 512.04115972 171.67970178 511.30078125 169.26220703 C510.97199478 168.17563498 510.97199478 168.17563498 510.63656616 167.06711197 C509.81107314 163.76733187 509.81107314 163.76733187 508 161 C505.89937384 160.90204313 503.7953822 160.87628816 501.69247341 160.87695217 C500.68784868 160.8752214 500.68784868 160.8752214 499.66292849 160.87345567 C497.39061282 160.87078252 495.11836624 160.87531686 492.84605408 160.87974548 C491.21176991 160.87930992 489.57748581 160.8784353 487.94320208 160.87715632 C483.43042937 160.87490836 478.91768016 160.87893673 474.40491045 160.88393438 C469.54666859 160.8882344 464.68842816 160.88679278 459.83018494 160.8860321 C451.40568157 160.88550658 442.98118592 160.88865631 434.55668449 160.89426994 C422.37612046 160.90238115 410.19556018 160.90499977 398.01499373 160.90625793 C378.25502951 160.90844905 358.49506941 160.91511076 338.73510742 160.92456055 C319.53491232 160.93373312 300.33471833 160.94081471 281.13452148 160.94506836 C279.95193396 160.94533108 278.76934643 160.94559381 277.55092292 160.94586449 C271.61850135 160.94716949 265.68607976 160.9484332 259.75365818 160.94967639 C210.50243594 160.96005087 161.25121817 160.97767081 112 161 Z " fill="#000000" transform="translate(190,0)"/>
<path d="M0 0 C117.48 0 234.96 0 356 0 C354.59045288 4.22864135 351.4857014 5.86087725 348 8.375 C346.52932704 9.45618722 345.05929542 10.53824725 343.58984375 11.62109375 C342.82913574 12.17909668 342.06842773 12.73709961 341.28466797 13.31201172 C337.67735636 15.97721288 334.11963694 18.70589042 330.5625 21.4375 C329.1367494 22.52998792 327.71096799 23.62243562 326.28515625 24.71484375 C325.22385498 25.52864502 325.22385498 25.52864502 324.14111328 26.35888672 C320.59649434 29.07575428 317.04806623 31.78763701 313.5 34.5 C312.08331485 35.58330916 310.66664819 36.6666425 309.25 37.75 C300.75 44.25 292.25 50.75 283.75 57.25 C283.04907227 57.7860083 282.34814453 58.3220166 281.62597656 58.87426758 C280.20607316 59.96006647 278.78615122 61.04584112 277.36621094 62.1315918 C273.87391567 64.80200585 270.38191954 67.47280895 266.890625 70.14453125 C258.20420453 76.79095904 249.50794198 83.4243357 240.80664062 90.05126953 C233.21720838 95.83230409 225.637062 101.62539178 218.06054688 107.42333984 C215.96251573 109.02868169 213.86413559 110.63356619 211.765625 112.23828125 C211.06115234 112.77710938 210.35667969 113.3159375 209.63085938 113.87109375 C208.22125862 114.94864373 206.8111107 116.02547835 205.40039062 117.1015625 C201.69570347 119.92909531 198.00386344 122.77162553 194.328125 125.63671875 C193.56177734 126.23097656 192.79542969 126.82523438 192.00585938 127.4375 C190.53993936 128.57469856 189.07748751 129.716387 187.61914062 130.86328125 C180.19994562 136.60252248 180.19994562 136.60252248 177 137 C174.20093297 135.62538521 171.90234133 133.72090044 169.5 131.75 C168.79149902 131.19296387 168.08299805 130.63592773 167.35302734 130.06201172 C165.90515227 128.92251354 164.46288902 127.77584817 163.02636719 126.62207031 C160.26106691 124.40849741 157.44403028 122.26975841 154.625 120.125 C150.99272501 117.32334413 147.36993677 114.51008208 143.75390625 111.6875 C135.90381798 105.56188517 128.02461354 99.48863348 120.03979492 93.53955078 C114.97590088 89.75679255 109.98009332 85.89224239 105 82 C98.61272812 77.00846784 92.17273613 72.09772754 85.67651367 67.24902344 C80.6401183 63.48814789 75.65108218 59.66957778 70.67578125 55.828125 C65.04511908 51.48725686 59.37978917 47.19160612 53.72216797 42.88598633 C48.94867964 39.25163564 44.18444814 35.60643153 39.4375 31.9375 C33.99576103 27.74120454 28.50123802 23.6178977 23 19.5 C20.45602241 17.59243598 17.9124382 15.68434946 15.36914062 13.77587891 C13.85868414 12.64365915 12.34708401 11.51296235 10.83398438 10.38427734 C8.9681301 8.99124544 7.10824118 7.59066171 5.25 6.1875 C4.22390625 5.41792969 3.1978125 4.64835938 2.140625 3.85546875 C1.43421875 3.24316406 0.7278125 2.63085938 0 2 C0 1.34 0 0.68 0 0 Z " fill="#000000" transform="translate(322,556)"/>
</svg>
